# xmcd
#
# Track frame offsets: 
#        150
#        24192
#        47905
#        61172
#        70170
#        85545
#        101087
#        119235
#        141827
#        149937
#        165705
#        185340
#        197087
#        212587
#
# Disc length: 3079 seconds
#
# Revision: 0
# Processed by: cddbd v1.5.2PL0 Copyright (c) Steve Scherf et al.
# Submitted via: ExactAudioCopy v1.0b4
#
DISCID=d10c050e
DTITLE=Eric Hughes Band - Paycheck Boogie
DYEAR=2002
DGENRE=Blues
TTITLE0=Paycheck Boogie
TTITLE1=Zombie Song
TTITLE2=Icebox Blues
TTITLE3=Come Home Blues
TTITLE4=How Long, Lord
TTITLE5=Gone To Mississippi
TTITLE6=Never Said I Was A Saint
TTITLE7=Los Bad Dudes
TTITLE8=You Cook 'Em, I Caught 'Em
TTITLE9=Last Night
TTITLE10=Drink Myself To Sleep
TTITLE11=Where I Keep The Key
TTITLE12=Back In Style
TTITLE13=Handy Man
EXTD=
EXTT0=
EXTT1=
EXTT2=
EXTT3=
EXTT4=
EXTT5=
EXTT6=
EXTT7=
EXTT8=
EXTT9=
EXTT10=
EXTT11=
EXTT12=
EXTT13=
PLAYORDER=
